<?xml version="1.0" encoding="utf-8"?>
<svg id="Layer_1" data-name="Layer 1" xmlns="http://www.w3.org/2000/svg" viewBox="0 0 379.31 156.84"><defs><style>.cls-1{fill:#fff;}</style></defs><title>molly-white</title><path class="cls-1" d="M150.65,133.45a15.12,15.12,0,0,0-3.23-.34H116.1q-8.38,0-8.38-5a6.22,6.22,0,0,1,.48-2.1,7.18,7.18,0,0,1,.76-1.61,14.84,14.84,0,0,0,3.81.55,25.19,25.19,0,0,0,3.64-.28,6.56,6.56,0,0,0,3.19-1.31q2.82-2.33,2.4-8.86l-4.47-58.94-.62-11.47-31.6,70a5.37,5.37,0,0,1-2.75.55,6.77,6.77,0,0,1-3.81-1.34A16.16,16.16,0,0,1,75.22,110a42,42,0,0,1-4.88-8.24L44.79,41.81l-5.57,74.81q-.27,3.92,1.1,5.29a9.87,9.87,0,0,0,4.54,2.47q2.82.76,4.4,1.13a11.74,11.74,0,0,1,2.75,1,4.25,4.25,0,0,1,2.54,4.12,4.48,4.48,0,0,1-1.1,2.82,8.72,8.72,0,0,0-2.34-.34H20.81q-9.21,0-9.21-5.08a5.66,5.66,0,0,1,1.1-3.64,15.15,15.15,0,0,0,4.05.55q2.06,0,3.5-.14a4.85,4.85,0,0,0,2.68-1.17q2.54-2.33,3.16-10.37l7.08-73A2.84,2.84,0,0,0,32,37.62a8.32,8.32,0,0,0-3.23-1.37q-1.92-.41-3.33-.69A8.69,8.69,0,0,1,23,34.73a3.62,3.62,0,0,1-2.13-3.54,6.05,6.05,0,0,1,1-3.74,9.26,9.26,0,0,0,2.34.34H44.51q10.23,0,12.57,5l25.56,60L109,32.47a6.36,6.36,0,0,1,3.92-3.85,22.53,22.53,0,0,1,6.66-.82h13.33q9.27,0,9.27,4.88a5.64,5.64,0,0,1-1,3.78,17.76,17.76,0,0,0-4.5-.76,16,16,0,0,0-3.13.28,4.47,4.47,0,0,0-2.2,1q-1.72,1.44-1.31,5.77l7.42,75.16a6.42,6.42,0,0,0,5.15,6q1.3.34,2.75.82l2.68.89q2.54.83,3.09,2.16a6.79,6.79,0,0,1,.55,2.58,4.73,4.73,0,0,1-1,3Zm64.14-10.1a35.48,35.48,0,0,1-26.17,11.06q-15.94,0-25.56-11.2-9.34-10.78-9.34-28a62.8,62.8,0,0,1,1.65-15,46.19,46.19,0,0,1,4.53-11.75,35.59,35.59,0,0,1,6.8-8.69,37.24,37.24,0,0,1,8.38-5.87,41.45,41.45,0,0,1,19.17-4.47A30.3,30.3,0,0,1,217,59.12q10.37,10.72,10.37,28.3,0,23.08-12.57,35.93Zm-8-51.94q-6-11.06-17.38-11.06a17.66,17.66,0,0,0-14.63,7Q169,74.78,169,88.11q0,16.69,7.35,26.38,6.59,8.72,16.35,8.72a15.83,15.83,0,0,0,8.24-2.16,19.33,19.33,0,0,0,6.18-5.94q5.08-7.83,5.08-20.33,0-13.74-5.36-23.36Zm66.06,62a20,20,0,0,0-4.4-.34H246.57q-10.51,0-10.51-4.81a6.12,6.12,0,0,1,1-3.85,9.79,9.79,0,0,0,3.09.55q6,0,6.18-7.21v-86q0-4.81-1-6.11-1.58-2.2-5.08-2.2a14.87,14.87,0,0,0-3.06.31,3.35,3.35,0,0,1-2.06,0,2.38,2.38,0,0,1-.93-.86q-1.38-2.27,3.43-5.77,7.56-5.56,14.91-5.56,7.83,0,8.79,8.45a50,50,0,0,1,.28,5.36v92.67q.21,5.36,3.92,6.59a22.12,22.12,0,0,0,2.58.62,25.37,25.37,0,0,1,2.71.65,7,7,0,0,1,1.92.86,3.41,3.41,0,0,1,1.17,2.89,5.9,5.9,0,0,1-1.1,3.78Zm42.08,0a20,20,0,0,0-4.4-.34H288.65q-10.51,0-10.51-4.81a6.12,6.12,0,0,1,1-3.85,9.78,9.78,0,0,0,3.09.55q6,0,6.18-7.21v-86q0-4.81-1-6.11-1.58-2.2-5.08-2.2a14.86,14.86,0,0,0-3.06.31,3.35,3.35,0,0,1-2.06,0,2.38,2.38,0,0,1-.93-.86q-1.37-2.27,3.43-5.77,7.56-5.56,14.91-5.56,7.83,0,8.79,8.45a50.21,50.21,0,0,1,.28,5.36v92.67q.21,5.36,3.92,6.59a22.16,22.16,0,0,0,2.58.62,25.39,25.39,0,0,1,2.71.65,7,7,0,0,1,1.92.86,3.4,3.4,0,0,1,1.17,2.89,5.89,5.89,0,0,1-1.1,3.78Zm68.6-50.36Q376.7,101,373.26,109q-12.64,28.17-19,39.43t-12.09,15.63a19.49,19.49,0,0,1-12,4.36q-6.32,0-9.55-2.71a9.21,9.21,0,0,1-3.23-7.45,7.27,7.27,0,0,1,1.79-5.36q3.37-3.37,7.14-2.61.62,5.15,6.18,5.15,5,0,9-6.53a62.14,62.14,0,0,0,3.64-7.21l4-8.86,1.37-2.82a10.72,10.72,0,0,1-8.52-7.21L322.7,72.31l-1.65-4.05q-3.16-7.83-5.63-7.83L314,60.7q-1.51,0-2.13-2.06a4.7,4.7,0,0,1-.21-1.58,4.53,4.53,0,0,1,1.17-2.54,10.56,10.56,0,0,1,3-2.61,16.36,16.36,0,0,1,8.73-2.54q3.64,0,5.22,1,3.09,1.92,4.81,7.83l21,60.8q6.46-14.36,8.86-20.34L368.59,88q5.84-15.66,5.84-20.44t-1.65-7q-1.65-2.2-5.7-2.61a3.18,3.18,0,0,1-.76-2.23,3.56,3.56,0,0,1,1.27-2.61,11.44,11.44,0,0,1,3.33-2.1,22.55,22.55,0,0,1,8.62-1.72,30.45,30.45,0,0,1,6.29.45,6.43,6.43,0,0,1,3,1.48q2.13,1.92,2.13,7.14,0,4.67-7.35,24.66Z" transform="translate(-11.61 -11.58)"/></svg>
